<?xml version="1.0" encoding="UTF-8" standalone="no"?>
<!-- Created with Inkscape (http://www.inkscape.org/) -->

<svg
   xmlns:dc="http://purl.org/dc/elements/1.1/"
   xmlns:cc="http://creativecommons.org/ns#"
   xmlns:rdf="http://www.w3.org/1999/02/22-rdf-syntax-ns#"
   xmlns:svg="http://www.w3.org/2000/svg"
   xmlns="http://www.w3.org/2000/svg"
   xmlns:sodipodi="http://sodipodi.sourceforge.net/DTD/sodipodi-0.dtd"
   xmlns:inkscape="http://www.inkscape.org/namespaces/inkscape"
   width="210mm"
   height="297mm"
   viewBox="0 0 210 297"
   version="1.1"
   id="svg8"
   inkscape:version="0.92.4 (5da689c313, 2019-01-14)"
   sodipodi:docname="logo.svg">
  <defs
     id="defs2" />
  <sodipodi:namedview
     id="base"
     pagecolor="#ffffff"
     bordercolor="#666666"
     borderopacity="1.0"
     inkscape:pageopacity="0.0"
     inkscape:pageshadow="2"
     inkscape:zoom="0.98994949"
     inkscape:cx="234.52197"
     inkscape:cy="607.95742"
     inkscape:document-units="mm"
     inkscape:current-layer="layer1"
     showgrid="false"
     inkscape:window-width="2560"
     inkscape:window-height="1377"
     inkscape:window-x="-8"
     inkscape:window-y="-8"
     inkscape:window-maximized="1" />
  <metadata
     id="metadata5">
    <rdf:RDF>
      <cc:Work
         rdf:about="">
        <dc:format>image/svg+xml</dc:format>
        <dc:type
           rdf:resource="http://purl.org/dc/dcmitype/StillImage" />
        <dc:title></dc:title>
      </cc:Work>
    </rdf:RDF>
  </metadata>
  <g
     inkscape:label="Layer 1"
     inkscape:groupmode="layer"
     id="layer1">
    <g
       id="g4799"
       inkscape:export-xdpi="246.314"
       inkscape:export-ydpi="246.314">
      <rect
         ry="0.97080022"
         y="50.425777"
         x="-62.2738"
         height="169.33333"
         width="338.66666"
         id="rect4672"
         style="display:inline;opacity:1;vector-effect:none;fill:#f9f9f9;fill-opacity:1;stroke:none;stroke-width:0.37646711;stroke-linecap:butt;stroke-linejoin:miter;stroke-miterlimit:0;stroke-dasharray:none;stroke-dashoffset:0;stroke-opacity:1;paint-order:fill markers stroke" />
      <g
         transform="matrix(1.2238305,0,0,1.2238305,-20.47132,-39.437635)"
         id="g4719">
        <g
           id="g4595"
           transform="matrix(0.18708867,-0.18708867,0.18708867,0.18708867,46.869698,128.41987)">
          <path
             id="path4540"
             d="m 298.859,205.537 c -0.04,-0.039 -0.079,-0.078 -0.12,-0.116 -12.448,-12.386 -28.969,-19.207 -46.537,-19.207 -7.285,0 -14.384,1.19 -21.094,3.446 14.857,-31.841 9.168,-70.977 -17.08,-97.228 -16.238,-16.236 -37.827,-25.179 -60.789,-25.179 -12.811,0 -25.192,2.79 -36.459,8.071 C 124.486,52.326 119.212,25.896 100.93,7.612 96.022,2.703 89.495,0 82.552,0 75.609,0 69.08,2.703 64.167,7.614 58.496,13.29 56,20.956 56.68,28.384 c -0.794,-0.072 -1.597,-0.108 -2.405,-0.108 -6.941,0 -13.469,2.704 -18.379,7.614 -5.676,5.674 -8.173,13.341 -7.492,20.77 -0.794,-0.072 -1.595,-0.108 -2.402,-0.108 -6.944,0 -13.473,2.704 -18.383,7.615 -4.91,4.908 -7.614,11.435 -7.614,18.377 0,6.941 2.704,13.469 7.614,18.381 12.464,12.46 29.034,19.322 46.658,19.322 7.265,0 14.344,-1.184 21.036,-3.428 -5.266,11.253 -8.049,23.615 -8.049,36.408 0.001,22.963 8.944,44.551 25.183,60.788 16.239,16.241 37.831,25.186 60.795,25.186 12.812,0 25.193,-2.79 36.459,-8.072 -7.692,22.953 -2.457,49.323 15.735,67.602 0.037,0.039 0.075,0.078 0.113,0.117 4.91,4.911 11.437,7.615 18.38,7.615 6.944,0 13.471,-2.704 18.377,-7.615 4.911,-4.91 7.615,-11.438 7.615,-18.381 0,-0.802 -0.036,-1.599 -0.107,-2.389 0.789,0.072 1.586,0.108 2.388,0.108 6.942,0 13.471,-2.705 18.38,-7.614 4.912,-4.908 7.617,-11.436 7.617,-18.38 0,-0.803 -0.036,-1.601 -0.108,-2.391 0.788,0.071 1.583,0.107 2.384,0.107 0,0 10e-4,0 10e-4,0 6.942,0 13.471,-2.704 18.384,-7.616 10.133,-10.13 10.132,-26.618 -0.001,-36.755 z M 16.103,92.439 c -2.644,-2.644 -4.1,-6.158 -4.1,-9.896 0,-3.736 1.456,-7.249 4.099,-9.892 2.645,-2.645 6.16,-4.1 9.899,-4.1 3.737,0 7.25,1.455 9.895,4.097 2.344,2.342 6.141,2.342 8.484,-0.002 2.342,-2.343 2.342,-6.141 10e-4,-8.484 -5.456,-5.457 -5.457,-14.333 -10e-4,-19.787 2.644,-2.644 6.158,-4.1 9.895,-4.1 3.736,0 7.25,1.456 9.895,4.1 2.343,2.344 6.142,2.343 8.485,10e-4 2.343,-2.343 2.344,-6.142 0.002,-8.485 C 67.203,30.435 67.203,21.555 72.655,16.099 75.298,13.455 78.813,12 82.552,12 c 3.737,0 7.251,1.455 9.894,4.098 18.06,18.062 20.605,45.838 7.667,66.657 L 98.104,56.986 c -0.192,-2.478 -2.355,-4.344 -4.836,-4.137 -2.478,0.193 -4.33,2.358 -4.137,4.836 L 91.252,84.884 78.645,72.277 c -1.758,-1.758 -4.606,-1.758 -6.364,0 -1.757,1.757 -1.757,4.606 0,6.363 L 84.882,91.241 57.69,89.119 c -2.469,-0.199 -4.642,1.658 -4.836,4.136 -0.193,2.479 1.659,4.644 4.136,4.837 l 25.804,2.014 c -8.476,5.295 -18.275,8.142 -28.518,8.142 C 39.857,108.247 26.3,102.633 16.103,92.439 Z M 100.931,205.53 C 86.958,191.559 79.263,172.984 79.263,153.227 c 0,-19.757 7.694,-38.332 21.665,-52.304 13.975,-13.974 32.552,-21.67 52.312,-21.67 19.756,0 38.332,7.693 52.304,21.664 28.842,28.845 28.842,75.776 0,104.619 -13.971,13.971 -32.546,21.664 -52.302,21.664 -19.76,0.001 -38.337,-7.695 -52.311,-21.67 z m 189.446,28.278 c -2.647,2.645 -6.163,4.102 -9.901,4.102 -3.736,0 -7.25,-1.455 -9.894,-4.097 -2.344,-2.344 -6.144,-2.342 -8.485,0.003 -1.171,1.172 -1.756,2.708 -1.756,4.243 0,1.536 0.587,3.071 1.759,4.242 2.644,2.642 4.099,6.154 4.099,9.892 0,3.738 -1.456,7.25 -4.101,9.894 -2.644,2.644 -6.159,4.101 -9.896,4.101 -3.737,0 -7.252,-1.457 -9.896,-4.101 -2.343,-2.344 -6.143,-2.344 -8.485,0 -1.171,1.171 -1.757,2.707 -1.757,4.242 0,1.535 0.586,3.071 1.757,4.242 2.645,2.645 4.101,6.159 4.101,9.896 0,3.737 -1.456,7.252 -4.102,9.897 -2.642,2.644 -6.154,4.099 -9.891,4.099 -3.694,0 -7.17,-1.423 -9.803,-4.01 -0.031,-0.032 -0.063,-0.064 -0.094,-0.096 -18.059,-18.059 -20.604,-45.832 -7.667,-66.65 l 2.009,25.768 c 0.184,2.359 2.155,4.15 4.481,4.15 0.117,0 0.236,-0.004 0.355,-0.014 2.478,-0.193 4.33,-2.358 4.137,-4.836 l -2.121,-27.199 12.602,12.602 c 0.879,0.879 2.03,1.318 3.182,1.318 1.152,0 2.303,-0.439 3.182,-1.318 1.757,-1.757 1.757,-4.606 0,-6.363 l -12.601,-12.601 27.194,2.122 c 0.119,0.01 0.237,0.014 0.355,0.014 2.326,0 4.297,-1.791 4.481,-4.149 0.193,-2.479 -1.659,-4.644 -4.136,-4.837 l -25.792,-2.013 c 8.474,-5.292 18.27,-8.137 28.509,-8.137 14.418,0 27.973,5.614 38.168,15.809 0.031,0.031 0.062,0.061 0.094,0.092 5.363,5.464 5.334,14.271 -0.087,19.693 z"
             inkscape:connector-curvature="0" />
          <g
             id="g4542">
</g>
          <g
             id="g4544">
</g>
          <g
             id="g4546">
</g>
          <g
             id="g4548">
</g>
          <g
             id="g4550">
</g>
          <g
             id="g4552">
</g>
          <g
             id="g4554">
</g>
          <g
             id="g4556">
</g>
          <g
             id="g4558">
</g>
          <g
             id="g4560">
</g>
          <g
             id="g4562">
</g>
          <g
             id="g4564">
</g>
          <g
             id="g4566">
</g>
          <g
             id="g4568">
</g>
          <g
             id="g4570">
</g>
        </g>
        <g
           id="g4643"
           transform="matrix(0.95478994,0,0,0.95478994,73.372501,113.84477)">
          <g
             id="g4603">
	<path
   id="path4599"
   d="m 40.8,9.3 -2.1,2.1 c 3.5,3.5 3.5,9.2 0,12.7 -3.5,3.5 -9.2,3.5 -12.7,0 -3.5,-3.5 -3.5,-9.2 0,-12.7 v 0 L 31.6,5.8 32.3,5 V 5 0.8 l -8.5,8.5 c -4.7,4.7 -4.7,12.2 0,16.9 4.7,4.7 12.2,4.7 16.9,0 4.8,-4.7 4.8,-12.3 0.1,-16.9 z"
   class="st0"
   inkscape:connector-curvature="0"
   style="fill:#ee4c2c" />

	<circle
   id="circle4601"
   r="1.6"
   cy="7.0999999"
   cx="36.599998"
   class="st0"
   style="fill:#ee4c2c" />

</g>
        </g>
        <text
           xml:space="preserve"
           style="font-style:normal;font-weight:normal;font-size:18.12532425px;line-height:1.25;font-family:sans-serif;letter-spacing:0px;word-spacing:0px;fill:#000000;fill-opacity:1;stroke:none;stroke-width:0.45313311"
           x="29.288879"
           y="174.40672"
           id="text4670"><tspan
             sodipodi:role="line"
             id="tspan4668"
             x="29.288879"
             y="174.40672"
             style="font-style:normal;font-variant:normal;font-weight:normal;font-stretch:normal;font-family:'Comic Sans MS';-inkscape-font-specification:'Comic Sans MS';stroke-width:0.45313311">PyTorch Wrapper</tspan></text>
      </g>
    </g>
  </g>
  <style
     id="style4597"
     type="text/css">
	.st0{fill:#EE4C2C;}
	.st1{fill:#252525;}
</style>
</svg>
